<svg xmlns="http://www.w3.org/2000/svg" version="1.1" xmlns:xlink="http://www.w3.org/1999/xlink" xmlns:svgjs="http://svgjs.com/svgjs" width="1440" height="560" preserveAspectRatio="none" viewBox="0 0 1440 560"><g mask="url(&quot;#SvgjsMask1018&quot;)" fill="none"><rect width="1440" height="560" x="0" y="0" fill="#0e2a47"></rect><path d="M-92.51 490.62L-92.51 490.62" stroke="#132e65" stroke-width="1.5"></path><path d="M-92.51 490.62L48.26 397.04" stroke="#132e65" stroke-width="1.5"></path><path d="M-92.51 490.62L-77.47 686.48" stroke="#132e65" stroke-width="1.5"></path><path d="M-77.47 686.48L-77.47 686.48" stroke="#132e65" stroke-width="1.5"></path><path d="M-77.47 686.48L42.58 657.67" stroke="#132e65" stroke-width="1.5"></path><path d="M-77.47 686.48L207.28 701.21" stroke="#132e65" stroke-width="1.5"></path><path d="M-77.47 686.48L48.26 397.04" stroke="#132e65" stroke-width="1.5"></path><path d="M48.26 397.04L48.26 397.04" stroke="#132e65" stroke-width="1.5"></path><path d="M48.26 397.04L205.87 539.41" stroke="#132e65" stroke-width="1.5"></path><path d="M42.58 657.67L42.58 657.67" stroke="#132e65" stroke-width="1.5"></path><path d="M42.58 657.67L207.28 701.21" stroke="#132e65" stroke-width="1.5"></path><path d="M205.87 539.41L205.87 539.41" stroke="#132e65" stroke-width="1.5"></path><path d="M205.87 539.41L207.28 701.21" stroke="#132e65" stroke-width="1.5"></path><path d="M205.87 539.41L42.58 657.67" stroke="#132e65" stroke-width="1.5"></path><path d="M205.87 539.41L396.4 670.99" stroke="#132e65" stroke-width="1.5"></path><path d="M205.87 539.41L379.11 375.55" stroke="#132e65" stroke-width="1.5"></path><path d="M205.87 539.41L-92.51 490.62" stroke="#132e65" stroke-width="1.5"></path><path d="M207.28 701.21L207.28 701.21" stroke="#132e65" stroke-width="1.5"></path><path d="M207.28 701.21L396.4 670.99" stroke="#132e65" stroke-width="1.5"></path><path d="M207.28 701.21L545.48 665.86" stroke="#132e65" stroke-width="1.5"></path><path d="M207.28 701.21L48.26 397.04" stroke="#132e65" stroke-width="1.5"></path><path d="M379.11 375.55L379.11 375.55" stroke="#132e65" stroke-width="1.5"></path><path d="M379.11 375.55L489.32 392.36" stroke="#132e65" stroke-width="1.5"></path><path d="M396.4 670.99L396.4 670.99" stroke="#132e65" stroke-width="1.5"></path><path d="M396.4 670.99L545.48 665.86" stroke="#132e65" stroke-width="1.5"></path><path d="M396.4 670.99L644.37 668.88" stroke="#132e65" stroke-width="1.5"></path><path d="M489.32 392.36L489.32 392.36" stroke="#132e65" stroke-width="1.5"></path><path d="M489.32 392.36L706.48 372.32" stroke="#132e65" stroke-width="1.5"></path><path d="M489.32 392.36L668.35 218.3" stroke="#132e65" stroke-width="1.5"></path><path d="M489.32 392.36L708.89 532.39" stroke="#132e65" stroke-width="1.5"></path><path d="M545.48 665.86L545.48 665.86" stroke="#132e65" stroke-width="1.5"></path><path d="M545.48 665.86L644.37 668.88" stroke="#132e65" stroke-width="1.5"></path><path d="M545.48 665.86L708.89 532.39" stroke="#132e65" stroke-width="1.5"></path><path d="M545.48 665.86L489.32 392.36" stroke="#132e65" stroke-width="1.5"></path><path d="M668.35 218.3L668.35 218.3" stroke="#132e65" stroke-width="1.5"></path><path d="M668.35 218.3L803.3 238.73" stroke="#132e65" stroke-width="1.5"></path><path d="M668.35 218.3L706.48 372.32" stroke="#132e65" stroke-width="1.5"></path><path d="M706.48 372.32L706.48 372.32" stroke="#132e65" stroke-width="1.5"></path><path d="M706.48 372.32L829.79 406.65" stroke="#132e65" stroke-width="1.5"></path><path d="M706.48 372.32L808.13 492.35" stroke="#132e65" stroke-width="1.5"></path><path d="M708.89 532.39L708.89 532.39" stroke="#132e65" stroke-width="1.5"></path><path d="M708.89 532.39L808.13 492.35" stroke="#132e65" stroke-width="1.5"></path><path d="M708.89 532.39L644.37 668.88" stroke="#132e65" stroke-width="1.5"></path><path d="M708.89 532.39L706.48 372.32" stroke="#132e65" stroke-width="1.5"></path><path d="M708.89 532.39L829.79 406.65" stroke="#132e65" stroke-width="1.5"></path><path d="M708.89 532.39L822.14 707.89" stroke="#132e65" stroke-width="1.5"></path><path d="M644.37 668.88L644.37 668.88" stroke="#132e65" stroke-width="1.5"></path><path d="M644.37 668.88L822.14 707.89" stroke="#132e65" stroke-width="1.5"></path><path d="M644.37 668.88L808.13 492.35" stroke="#132e65" stroke-width="1.5"></path><path d="M644.37 668.88L706.48 372.32" stroke="#132e65" stroke-width="1.5"></path><path d="M803.3 238.73L803.3 238.73" stroke="#132e65" stroke-width="1.5"></path><path d="M803.3 238.73L706.48 372.32" stroke="#132e65" stroke-width="1.5"></path><path d="M829.79 406.65L829.79 406.65" stroke="#132e65" stroke-width="1.5"></path><path d="M829.79 406.65L808.13 492.35" stroke="#132e65" stroke-width="1.5"></path><path d="M829.79 406.65L952.51 405.38" stroke="#132e65" stroke-width="1.5"></path><path d="M829.79 406.65L968.61 494.43" stroke="#132e65" stroke-width="1.5"></path><path d="M829.79 406.65L803.3 238.73" stroke="#132e65" stroke-width="1.5"></path><path d="M808.13 492.35L808.13 492.35" stroke="#132e65" stroke-width="1.5"></path><path d="M808.13 492.35L968.61 494.43" stroke="#132e65" stroke-width="1.5"></path><path d="M808.13 492.35L952.51 405.38" stroke="#132e65" stroke-width="1.5"></path><path d="M808.13 492.35L822.14 707.89" stroke="#132e65" stroke-width="1.5"></path><path d="M822.14 707.89L822.14 707.89" stroke="#132e65" stroke-width="1.5"></path><path d="M822.14 707.89L994.37 648.47" stroke="#132e65" stroke-width="1.5"></path><path d="M822.14 707.89L968.61 494.43" stroke="#132e65" stroke-width="1.5"></path><path d="M822.14 707.89L545.48 665.86" stroke="#132e65" stroke-width="1.5"></path><path d="M945.92 -89.41L945.92 -89.41" stroke="#132e65" stroke-width="1.5"></path><path d="M945.92 -89.41L939.03 42.84" stroke="#132e65" stroke-width="1.5"></path><path d="M945.92 -89.41L1139.71 -65.12" stroke="#132e65" stroke-width="1.5"></path><path d="M939.03 42.84L939.03 42.84" stroke="#132e65" stroke-width="1.5"></path><path d="M939.03 42.84L1139.71 -65.12" stroke="#132e65" stroke-width="1.5"></path><path d="M939.03 42.84L803.3 238.73" stroke="#132e65" stroke-width="1.5"></path><path d="M939.03 42.84L1147.48 223.29" stroke="#132e65" stroke-width="1.5"></path><path d="M939.03 42.84L668.35 218.3" stroke="#132e65" stroke-width="1.5"></path><path d="M939.03 42.84L1254.39 -92.97" stroke="#132e65" stroke-width="1.5"></path><path d="M952.51 405.38L952.51 405.38" stroke="#132e65" stroke-width="1.5"></path><path d="M952.51 405.38L968.61 494.43" stroke="#132e65" stroke-width="1.5"></path><path d="M952.51 405.38L1101.19 350.18" stroke="#132e65" stroke-width="1.5"></path><path d="M952.51 405.38L803.3 238.73" stroke="#132e65" stroke-width="1.5"></path><path d="M952.51 405.38L1160.48 505.82" stroke="#132e65" stroke-width="1.5"></path><path d="M968.61 494.43L968.61 494.43" stroke="#132e65" stroke-width="1.5"></path><path d="M968.61 494.43L994.37 648.47" stroke="#132e65" stroke-width="1.5"></path><path d="M994.37 648.47L994.37 648.47" stroke="#132e65" stroke-width="1.5"></path><path d="M994.37 648.47L1114.59 656.65" stroke="#132e65" stroke-width="1.5"></path><path d="M994.37 648.47L1160.48 505.82" stroke="#132e65" stroke-width="1.5"></path><path d="M994.37 648.47L808.13 492.35" stroke="#132e65" stroke-width="1.5"></path><path d="M1139.71 -65.12L1139.71 -65.12" stroke="#132e65" stroke-width="1.5"></path><path d="M1139.71 -65.12L1254.39 -92.97" stroke="#132e65" stroke-width="1.5"></path><path d="M1139.71 -65.12L1306.62 48.74" stroke="#132e65" stroke-width="1.5"></path><path d="M1139.71 -65.12L1253.29 194.16" stroke="#132e65" stroke-width="1.5"></path><path d="M1139.71 -65.12L1147.48 223.29" stroke="#132e65" stroke-width="1.5"></path><path d="M1147.48 223.29L1147.48 223.29" stroke="#132e65" stroke-width="1.5"></path><path d="M1147.48 223.29L1253.29 194.16" stroke="#132e65" stroke-width="1.5"></path><path d="M1147.48 223.29L1101.19 350.18" stroke="#132e65" stroke-width="1.5"></path><path d="M1147.48 223.29L1241.02 373.67" stroke="#132e65" stroke-width="1.5"></path><path d="M1147.48 223.29L1306.62 48.74" stroke="#132e65" stroke-width="1.5"></path><path d="M1147.48 223.29L952.51 405.38" stroke="#132e65" stroke-width="1.5"></path><path d="M1101.19 350.18L1101.19 350.18" stroke="#132e65" stroke-width="1.5"></path><path d="M1101.19 350.18L1241.02 373.67" stroke="#132e65" stroke-width="1.5"></path><path d="M1101.19 350.18L1160.48 505.82" stroke="#132e65" stroke-width="1.5"></path><path d="M1160.48 505.82L1160.48 505.82" stroke="#132e65" stroke-width="1.5"></path><path d="M1160.48 505.82L1286.44 531" stroke="#132e65" stroke-width="1.5"></path><path d="M1160.48 505.82L1241.02 373.67" stroke="#132e65" stroke-width="1.5"></path><path d="M1114.59 656.65L1114.59 656.65" stroke="#132e65" stroke-width="1.5"></path><path d="M1114.59 656.65L1251.62 679.37" stroke="#132e65" stroke-width="1.5"></path><path d="M1114.59 656.65L1160.48 505.82" stroke="#132e65" stroke-width="1.5"></path><path d="M1114.59 656.65L1286.44 531" stroke="#132e65" stroke-width="1.5"></path><path d="M1254.39 -92.97L1254.39 -92.97" stroke="#132e65" stroke-width="1.5"></path><path d="M1254.39 -92.97L1306.62 48.74" stroke="#132e65" stroke-width="1.5"></path><path d="M1254.39 -92.97L1428.7 -99.6" stroke="#132e65" stroke-width="1.5"></path><path d="M1254.39 -92.97L1453.63 98.62" stroke="#132e65" stroke-width="1.5"></path><path d="M1306.62 48.74L1306.62 48.74" stroke="#132e65" stroke-width="1.5"></path><path d="M1306.62 48.74L1253.29 194.16" stroke="#132e65" stroke-width="1.5"></path><path d="M1306.62 48.74L1453.63 98.62" stroke="#132e65" stroke-width="1.5"></path><path d="M1306.62 48.74L1428.7 -99.6" stroke="#132e65" stroke-width="1.5"></path><path d="M1253.29 194.16L1253.29 194.16" stroke="#132e65" stroke-width="1.5"></path><path d="M1253.29 194.16L1241.02 373.67" stroke="#132e65" stroke-width="1.5"></path><path d="M1253.29 194.16L1448 214.39" stroke="#132e65" stroke-width="1.5"></path><path d="M1253.29 194.16L1101.19 350.18" stroke="#132e65" stroke-width="1.5"></path><path d="M1253.29 194.16L1453.63 98.62" stroke="#132e65" stroke-width="1.5"></path><path d="M1241.02 373.67L1241.02 373.67" stroke="#132e65" stroke-width="1.5"></path><path d="M1241.02 373.67L1286.44 531" stroke="#132e65" stroke-width="1.5"></path><path d="M1286.44 531L1286.44 531" stroke="#132e65" stroke-width="1.5"></path><path d="M1286.44 531L1433.98 542.46" stroke="#132e65" stroke-width="1.5"></path><path d="M1286.44 531L1251.62 679.37" stroke="#132e65" stroke-width="1.5"></path><path d="M1286.44 531L1423.77 670.13" stroke="#132e65" stroke-width="1.5"></path><path d="M1251.62 679.37L1251.62 679.37" stroke="#132e65" stroke-width="1.5"></path><path d="M1251.62 679.37L1423.77 670.13" stroke="#132e65" stroke-width="1.5"></path><path d="M1251.62 679.37L1160.48 505.82" stroke="#132e65" stroke-width="1.5"></path><path d="M1251.62 679.37L1433.98 542.46" stroke="#132e65" stroke-width="1.5"></path><path d="M1251.62 679.37L994.37 648.47" stroke="#132e65" stroke-width="1.5"></path><path d="M1428.7 -99.6L1428.7 -99.6" stroke="#132e65" stroke-width="1.5"></path><path d="M1428.7 -99.6L1567.71 -64.7" stroke="#132e65" stroke-width="1.5"></path><path d="M1428.7 -99.6L1453.63 98.62" stroke="#132e65" stroke-width="1.5"></path><path d="M1428.7 -99.6L1572.88 96.88" stroke="#132e65" stroke-width="1.5"></path><path d="M1428.7 -99.6L1139.71 -65.12" stroke="#132e65" stroke-width="1.5"></path><path d="M1453.63 98.62L1453.63 98.62" stroke="#132e65" stroke-width="1.5"></path><path d="M1453.63 98.62L1448 214.39" stroke="#132e65" stroke-width="1.5"></path><path d="M1453.63 98.62L1572.88 96.88" stroke="#132e65" stroke-width="1.5"></path><path d="M1453.63 98.62L1547.27 241.28" stroke="#132e65" stroke-width="1.5"></path><path d="M1453.63 98.62L1567.71 -64.7" stroke="#132e65" stroke-width="1.5"></path><path d="M1448 214.39L1448 214.39" stroke="#132e65" stroke-width="1.5"></path><path d="M1448 214.39L1547.27 241.28" stroke="#132e65" stroke-width="1.5"></path><path d="M1448 214.39L1449.76 342.74" stroke="#132e65" stroke-width="1.5"></path><path d="M1448 214.39L1572.88 96.88" stroke="#132e65" stroke-width="1.5"></path><path d="M1449.76 342.74L1449.76 342.74" stroke="#132e65" stroke-width="1.5"></path><path d="M1449.76 342.74L1575.32 367.04" stroke="#132e65" stroke-width="1.5"></path><path d="M1433.98 542.46L1433.98 542.46" stroke="#132e65" stroke-width="1.5"></path><path d="M1433.98 542.46L1423.77 670.13" stroke="#132e65" stroke-width="1.5"></path><path d="M1433.98 542.46L1539.4 655.35" stroke="#132e65" stroke-width="1.5"></path><path d="M1433.98 542.46L1449.76 342.74" stroke="#132e65" stroke-width="1.5"></path><path d="M1423.77 670.13L1423.77 670.13" stroke="#132e65" stroke-width="1.5"></path><path d="M1423.77 670.13L1539.4 655.35" stroke="#132e65" stroke-width="1.5"></path><path d="M1567.71 -64.7L1567.71 -64.7" stroke="#132e65" stroke-width="1.5"></path><path d="M1572.88 96.88L1572.88 96.88" stroke="#132e65" stroke-width="1.5"></path><path d="M1572.88 96.88L1547.27 241.28" stroke="#132e65" stroke-width="1.5"></path><path d="M1547.27 241.28L1547.27 241.28" stroke="#132e65" stroke-width="1.5"></path><path d="M1547.27 241.28L1575.32 367.04" stroke="#132e65" stroke-width="1.5"></path><path d="M1547.27 241.28L1449.76 342.74" stroke="#132e65" stroke-width="1.5"></path><path d="M1575.32 367.04L1575.32 367.04" stroke="#132e65" stroke-width="1.5"></path><path d="M1575.32 367.04L1448 214.39" stroke="#132e65" stroke-width="1.5"></path><path d="M1575.32 367.04L1433.98 542.46" stroke="#132e65" stroke-width="1.5"></path><path d="M1575.32 367.04L1572.88 96.88" stroke="#132e65" stroke-width="1.5"></path><path d="M1575.32 367.04L1539.4 655.35" stroke="#132e65" stroke-width="1.5"></path><path d="M1539.4 655.35L1539.4 655.35" stroke="#132e65" stroke-width="1.5"></path><path d="M1539.4 655.35L1286.44 531" stroke="#132e65" stroke-width="1.5"></path><path d="M1539.4 655.35L1251.62 679.37" stroke="#132e65" stroke-width="1.5"></path><path d="M1539.4 655.35L1449.76 342.74" stroke="#132e65" stroke-width="1.5"></path><circle r="5" cx="-92.51" cy="490.62" fill="#132e65"></circle><circle r="5" cx="-77.47" cy="686.48" fill="#132e65"></circle><circle r="5" cx="48.26" cy="397.04" fill="#132e65"></circle><circle r="5" cx="42.58" cy="657.67" fill="#132e65"></circle><circle r="5" cx="205.87" cy="539.41" fill="#132e65"></circle><circle r="5" cx="207.28" cy="701.21" fill="#132e65"></circle><circle r="5" cx="379.11" cy="375.55" fill="#132e65"></circle><circle r="5" cx="396.4" cy="670.99" fill="#132e65"></circle><circle r="5" cx="489.32" cy="392.36" fill="#132e65"></circle><circle r="5" cx="545.48" cy="665.86" fill="#132e65"></circle><circle r="5" cx="668.35" cy="218.3" fill="#132e65"></circle><circle r="5" cx="706.48" cy="372.32" fill="#132e65"></circle><circle r="5" cx="708.89" cy="532.39" fill="#132e65"></circle><circle r="5" cx="644.37" cy="668.88" fill="#132e65"></circle><circle r="5" cx="803.3" cy="238.73" fill="#132e65"></circle><circle r="5" cx="829.79" cy="406.65" fill="#132e65"></circle><circle r="5" cx="808.13" cy="492.35" fill="#132e65"></circle><circle r="5" cx="822.14" cy="707.89" fill="#132e65"></circle><circle r="5" cx="945.92" cy="-89.41" fill="#132e65"></circle><circle r="5" cx="939.03" cy="42.84" fill="#132e65"></circle><circle r="5" cx="952.51" cy="405.38" fill="#132e65"></circle><circle r="5" cx="968.61" cy="494.43" fill="#132e65"></circle><circle r="5" cx="994.37" cy="648.47" fill="#132e65"></circle><circle r="5" cx="1139.71" cy="-65.12" fill="#132e65"></circle><circle r="5" cx="1147.48" cy="223.29" fill="#132e65"></circle><circle r="5" cx="1101.19" cy="350.18" fill="#132e65"></circle><circle r="5" cx="1160.48" cy="505.82" fill="#132e65"></circle><circle r="5" cx="1114.59" cy="656.65" fill="#132e65"></circle><circle r="5" cx="1254.39" cy="-92.97" fill="#132e65"></circle><circle r="5" cx="1306.62" cy="48.74" fill="#132e65"></circle><circle r="5" cx="1253.29" cy="194.16" fill="#132e65"></circle><circle r="5" cx="1241.02" cy="373.67" fill="#132e65"></circle><circle r="5" cx="1286.44" cy="531" fill="#132e65"></circle><circle r="5" cx="1251.62" cy="679.37" fill="#132e65"></circle><circle r="5" cx="1428.7" cy="-99.6" fill="#132e65"></circle><circle r="5" cx="1453.63" cy="98.62" fill="#132e65"></circle><circle r="5" cx="1448" cy="214.39" fill="#132e65"></circle><circle r="5" cx="1449.76" cy="342.74" fill="#132e65"></circle><circle r="5" cx="1433.98" cy="542.46" fill="#132e65"></circle><circle r="5" cx="1423.77" cy="670.13" fill="#132e65"></circle><circle r="5" cx="1567.71" cy="-64.7" fill="#132e65"></circle><circle r="5" cx="1572.88" cy="96.88" fill="#132e65"></circle><circle r="5" cx="1547.27" cy="241.28" fill="#132e65"></circle><circle r="5" cx="1575.32" cy="367.04" fill="#132e65"></circle><circle r="5" cx="1539.4" cy="655.35" fill="#132e65"></circle><path d="M240.12 511.41L240.12 511.41" stroke="hsl(228.5, 77.2%, 51.5%)" stroke-width="1.5"></path><path d="M240.12 511.41L109.33 504.24" stroke="hsl(228.5, 77.2%, 51.5%)" stroke-width="1.5"></path><path d="M240.12 511.41L382.9 530.45" stroke="hsl(228.5, 77.2%, 51.5%)" stroke-width="1.5"></path><path d="M240.12 511.41L339.64 675.79" stroke="hsl(228.5, 77.2%, 51.5%)" stroke-width="1.5"></path><path d="M339.64 675.79L339.64 675.79" stroke="hsl(228.5, 77.2%, 51.5%)" stroke-width="1.5"></path><path d="M339.64 675.79L382.9 530.45" stroke="hsl(228.5, 77.2%, 51.5%)" stroke-width="1.5"></path><path d="M339.64 675.79L500.32 548.24" stroke="hsl(228.5, 77.2%, 51.5%)" stroke-width="1.5"></path><path d="M851.87 653.49L851.87 653.49" stroke="hsl(228.5, 77.2%, 51.5%)" stroke-width="1.5"></path><path d="M851.87 653.49L937.53 701" stroke="hsl(228.5, 77.2%, 51.5%)" stroke-width="1.5"></path><path d="M851.87 653.49L847.02 536.15" stroke="hsl(228.5, 77.2%, 51.5%)" stroke-width="1.5"></path><path d="M851.87 653.49L711.12 539.77" stroke="hsl(228.5, 77.2%, 51.5%)" stroke-width="1.5"></path><path d="M851.87 653.49L649.08 645.47" stroke="hsl(228.5, 77.2%, 51.5%)" stroke-width="1.5"></path><path d="M1292.98 544.45L1292.98 544.45" stroke="hsl(228.5, 77.2%, 51.5%)" stroke-width="1.5"></path><path d="M1292.98 544.45L1460.1 556.65" stroke="hsl(228.5, 77.2%, 51.5%)" stroke-width="1.5"></path><path d="M1292.98 544.45L1128.81 503.69" stroke="hsl(228.5, 77.2%, 51.5%)" stroke-width="1.5"></path><path d="M1396.39 -68.08L1396.39 -68.08" stroke="hsl(228.5, 77.2%, 51.5%)" stroke-width="1.5"></path><path d="M1396.39 -68.08L1311.92 -104.5" stroke="hsl(228.5, 77.2%, 51.5%)" stroke-width="1.5"></path><path d="M1396.39 -68.08L1539.9 -97.69" stroke="hsl(228.5, 77.2%, 51.5%)" stroke-width="1.5"></path><path d="M1396.39 -68.08L1409.78 86.82" stroke="hsl(228.5, 77.2%, 51.5%)" stroke-width="1.5"></path><path d="M1396.39 -68.08L1284.88 77.47" stroke="hsl(228.5, 77.2%, 51.5%)" stroke-width="1.5"></path><path d="M1396.39 -68.08L1564.15 71.34" stroke="hsl(228.5, 77.2%, 51.5%)" stroke-width="1.5"></path><path d="M1408.61 363.22L1408.61 363.22" stroke="hsl(228.5, 77.2%, 51.5%)" stroke-width="1.5"></path><path d="M1408.61 363.22L1304.66 349.46" stroke="hsl(228.5, 77.2%, 51.5%)" stroke-width="1.5"></path><path d="M1408.61 363.22L1393.11 239.25" stroke="hsl(228.5, 77.2%, 51.5%)" stroke-width="1.5"></path><path d="M1408.61 363.22L1567.72 403.74" stroke="hsl(228.5, 77.2%, 51.5%)" stroke-width="1.5"></path><path d="M1408.61 363.22L1541.66 235.03" stroke="hsl(228.5, 77.2%, 51.5%)" stroke-width="1.5"></path><path d="M1564.15 71.34L1564.15 71.34" stroke="hsl(228.5, 77.2%, 51.5%)" stroke-width="1.5"></path><path d="M1564.15 71.34L1409.78 86.82" stroke="hsl(228.5, 77.2%, 51.5%)" stroke-width="1.5"></path><path d="M1564.15 71.34L1541.66 235.03" stroke="hsl(228.5, 77.2%, 51.5%)" stroke-width="1.5"></path><path d="M1564.15 71.34L1539.9 -97.69" stroke="hsl(228.5, 77.2%, 51.5%)" stroke-width="1.5"></path><path d="M1564.15 71.34L1393.11 239.25" stroke="hsl(228.5, 77.2%, 51.5%)" stroke-width="1.5"></path><path d="M1559.65 711.1L1559.65 711.1" stroke="hsl(228.5, 77.2%, 51.5%)" stroke-width="1.5"></path><path d="M1559.65 711.1L1411.89 676.03" stroke="hsl(228.5, 77.2%, 51.5%)" stroke-width="1.5"></path><path d="M1559.65 711.1L1562.34 544.5" stroke="hsl(228.5, 77.2%, 51.5%)" stroke-width="1.5"></path><path d="M1559.65 711.1L1460.1 556.65" stroke="hsl(228.5, 77.2%, 51.5%)" stroke-width="1.5"></path><path d="M1559.65 711.1L1567.72 403.74" stroke="hsl(228.5, 77.2%, 51.5%)" stroke-width="1.5"></path><path d="M1559.65 711.1L1292.98 544.45" stroke="hsl(228.5, 77.2%, 51.5%)" stroke-width="1.5"></path><path d="M-106.45 543.01L-106.45 543.01" stroke="hsl(228.5, 77.2%, 51.5%)" stroke-width="1.5"></path><path d="M-106.45 543.01L-37.82 641.38" stroke="hsl(228.5, 77.2%, 51.5%)" stroke-width="1.5"></path><path d="M-106.45 543.01L82.95 639.51" stroke="hsl(228.5, 77.2%, 51.5%)" stroke-width="1.5"></path><path d="M-106.45 543.01L109.33 504.24" stroke="hsl(228.5, 77.2%, 51.5%)" stroke-width="1.5"></path><path d="M-106.45 543.01L240.12 511.41" stroke="hsl(228.5, 77.2%, 51.5%)" stroke-width="1.5"></path><path d="M-106.45 543.01L339.64 675.79" stroke="hsl(228.5, 77.2%, 51.5%)" stroke-width="1.5"></path><path d="M-106.45 543.01L382.9 530.45" stroke="hsl(228.5, 77.2%, 51.5%)" stroke-width="1.5"></path><path d="M-37.82 641.38L-37.82 641.38" stroke="hsl(228.5, 77.2%, 51.5%)" stroke-width="1.5"></path><path d="M-37.82 641.38L82.95 639.51" stroke="hsl(228.5, 77.2%, 51.5%)" stroke-width="1.5"></path><path d="M-37.82 641.38L109.33 504.24" stroke="hsl(228.5, 77.2%, 51.5%)" stroke-width="1.5"></path><path d="M109.33 504.24L109.33 504.24" stroke="hsl(228.5, 77.2%, 51.5%)" stroke-width="1.5"></path><path d="M109.33 504.24L82.95 639.51" stroke="hsl(228.5, 77.2%, 51.5%)" stroke-width="1.5"></path><path d="M82.95 639.51L82.95 639.51" stroke="hsl(228.5, 77.2%, 51.5%)" stroke-width="1.5"></path><path d="M82.95 639.51L240.12 511.41" stroke="hsl(228.5, 77.2%, 51.5%)" stroke-width="1.5"></path><path d="M82.95 639.51L339.64 675.79" stroke="hsl(228.5, 77.2%, 51.5%)" stroke-width="1.5"></path><path d="M82.95 639.51L382.9 530.45" stroke="hsl(228.5, 77.2%, 51.5%)" stroke-width="1.5"></path><path d="M382.9 530.45L382.9 530.45" stroke="hsl(228.5, 77.2%, 51.5%)" stroke-width="1.5"></path><path d="M382.9 530.45L500.32 548.24" stroke="hsl(228.5, 77.2%, 51.5%)" stroke-width="1.5"></path><path d="M382.9 530.45L109.33 504.24" stroke="hsl(228.5, 77.2%, 51.5%)" stroke-width="1.5"></path><path d="M382.9 530.45L649.08 645.47" stroke="hsl(228.5, 77.2%, 51.5%)" stroke-width="1.5"></path><path d="M500.32 548.24L500.32 548.24" stroke="hsl(228.5, 77.2%, 51.5%)" stroke-width="1.5"></path><path d="M500.32 548.24L649.08 645.47" stroke="hsl(228.5, 77.2%, 51.5%)" stroke-width="1.5"></path><path d="M681.8 393.73L681.8 393.73" stroke="hsl(228.5, 77.2%, 51.5%)" stroke-width="1.5"></path><path d="M681.8 393.73L815.41 374.09" stroke="hsl(228.5, 77.2%, 51.5%)" stroke-width="1.5"></path><path d="M681.8 393.73L711.12 539.77" stroke="hsl(228.5, 77.2%, 51.5%)" stroke-width="1.5"></path><path d="M681.8 393.73L847.02 536.15" stroke="hsl(228.5, 77.2%, 51.5%)" stroke-width="1.5"></path><path d="M681.8 393.73L500.32 548.24" stroke="hsl(228.5, 77.2%, 51.5%)" stroke-width="1.5"></path><path d="M681.8 393.73L649.08 645.47" stroke="hsl(228.5, 77.2%, 51.5%)" stroke-width="1.5"></path><path d="M711.12 539.77L711.12 539.77" stroke="hsl(228.5, 77.2%, 51.5%)" stroke-width="1.5"></path><path d="M711.12 539.77L649.08 645.47" stroke="hsl(228.5, 77.2%, 51.5%)" stroke-width="1.5"></path><path d="M711.12 539.77L847.02 536.15" stroke="hsl(228.5, 77.2%, 51.5%)" stroke-width="1.5"></path><path d="M711.12 539.77L815.41 374.09" stroke="hsl(228.5, 77.2%, 51.5%)" stroke-width="1.5"></path><path d="M711.12 539.77L500.32 548.24" stroke="hsl(228.5, 77.2%, 51.5%)" stroke-width="1.5"></path><path d="M649.08 645.47L649.08 645.47" stroke="hsl(228.5, 77.2%, 51.5%)" stroke-width="1.5"></path><path d="M649.08 645.47L847.02 536.15" stroke="hsl(228.5, 77.2%, 51.5%)" stroke-width="1.5"></path><path d="M815.41 374.09L815.41 374.09" stroke="hsl(228.5, 77.2%, 51.5%)" stroke-width="1.5"></path><path d="M815.41 374.09L847.02 536.15" stroke="hsl(228.5, 77.2%, 51.5%)" stroke-width="1.5"></path><path d="M847.02 536.15L847.02 536.15" stroke="hsl(228.5, 77.2%, 51.5%)" stroke-width="1.5"></path><path d="M847.02 536.15L996.71 505.12" stroke="hsl(228.5, 77.2%, 51.5%)" stroke-width="1.5"></path><path d="M847.02 536.15L937.53 701" stroke="hsl(228.5, 77.2%, 51.5%)" stroke-width="1.5"></path><path d="M1008.73 257.15L1008.73 257.15" stroke="hsl(228.5, 77.2%, 51.5%)" stroke-width="1.5"></path><path d="M1008.73 257.15L1009.8 368.36" stroke="hsl(228.5, 77.2%, 51.5%)" stroke-width="1.5"></path><path d="M1008.73 257.15L1134.71 207.14" stroke="hsl(228.5, 77.2%, 51.5%)" stroke-width="1.5"></path><path d="M1008.73 257.15L1134.27 367.54" stroke="hsl(228.5, 77.2%, 51.5%)" stroke-width="1.5"></path><path d="M1009.8 368.36L1009.8 368.36" stroke="hsl(228.5, 77.2%, 51.5%)" stroke-width="1.5"></path><path d="M1009.8 368.36L1134.27 367.54" stroke="hsl(228.5, 77.2%, 51.5%)" stroke-width="1.5"></path><path d="M1009.8 368.36L996.71 505.12" stroke="hsl(228.5, 77.2%, 51.5%)" stroke-width="1.5"></path><path d="M1009.8 368.36L1128.81 503.69" stroke="hsl(228.5, 77.2%, 51.5%)" stroke-width="1.5"></path><path d="M1009.8 368.36L815.41 374.09" stroke="hsl(228.5, 77.2%, 51.5%)" stroke-width="1.5"></path><path d="M1009.8 368.36L1134.71 207.14" stroke="hsl(228.5, 77.2%, 51.5%)" stroke-width="1.5"></path><path d="M996.71 505.12L996.71 505.12" stroke="hsl(228.5, 77.2%, 51.5%)" stroke-width="1.5"></path><path d="M996.71 505.12L1128.81 503.69" stroke="hsl(228.5, 77.2%, 51.5%)" stroke-width="1.5"></path><path d="M937.53 701L937.53 701" stroke="hsl(228.5, 77.2%, 51.5%)" stroke-width="1.5"></path><path d="M937.53 701L996.71 505.12" stroke="hsl(228.5, 77.2%, 51.5%)" stroke-width="1.5"></path><path d="M937.53 701L1137.74 641.48" stroke="hsl(228.5, 77.2%, 51.5%)" stroke-width="1.5"></path><path d="M937.53 701L1128.81 503.69" stroke="hsl(228.5, 77.2%, 51.5%)" stroke-width="1.5"></path><path d="M1134.71 207.14L1134.71 207.14" stroke="hsl(228.5, 77.2%, 51.5%)" stroke-width="1.5"></path><path d="M1134.71 207.14L1251.58 261.57" stroke="hsl(228.5, 77.2%, 51.5%)" stroke-width="1.5"></path><path d="M1134.71 207.14L1134.27 367.54" stroke="hsl(228.5, 77.2%, 51.5%)" stroke-width="1.5"></path><path d="M1134.71 207.14L1284.88 77.47" stroke="hsl(228.5, 77.2%, 51.5%)" stroke-width="1.5"></path><path d="M1134.27 367.54L1134.27 367.54" stroke="hsl(228.5, 77.2%, 51.5%)" stroke-width="1.5"></path><path d="M1134.27 367.54L1128.81 503.69" stroke="hsl(228.5, 77.2%, 51.5%)" stroke-width="1.5"></path><path d="M1134.27 367.54L1251.58 261.57" stroke="hsl(228.5, 77.2%, 51.5%)" stroke-width="1.5"></path><path d="M1128.81 503.69L1128.81 503.69" stroke="hsl(228.5, 77.2%, 51.5%)" stroke-width="1.5"></path><path d="M1128.81 503.69L1137.74 641.48" stroke="hsl(228.5, 77.2%, 51.5%)" stroke-width="1.5"></path><path d="M1137.74 641.48L1137.74 641.48" stroke="hsl(228.5, 77.2%, 51.5%)" stroke-width="1.5"></path><path d="M1137.74 641.48L1292.98 544.45" stroke="hsl(228.5, 77.2%, 51.5%)" stroke-width="1.5"></path><path d="M1137.74 641.48L996.71 505.12" stroke="hsl(228.5, 77.2%, 51.5%)" stroke-width="1.5"></path><path d="M1311.92 -104.5L1311.92 -104.5" stroke="hsl(228.5, 77.2%, 51.5%)" stroke-width="1.5"></path><path d="M1284.88 77.47L1284.88 77.47" stroke="hsl(228.5, 77.2%, 51.5%)" stroke-width="1.5"></path><path d="M1284.88 77.47L1409.78 86.82" stroke="hsl(228.5, 77.2%, 51.5%)" stroke-width="1.5"></path><path d="M1284.88 77.47L1311.92 -104.5" stroke="hsl(228.5, 77.2%, 51.5%)" stroke-width="1.5"></path><path d="M1251.58 261.57L1251.58 261.57" stroke="hsl(228.5, 77.2%, 51.5%)" stroke-width="1.5"></path><path d="M1251.58 261.57L1304.66 349.46" stroke="hsl(228.5, 77.2%, 51.5%)" stroke-width="1.5"></path><path d="M1251.58 261.57L1393.11 239.25" stroke="hsl(228.5, 77.2%, 51.5%)" stroke-width="1.5"></path><path d="M1251.58 261.57L1408.61 363.22" stroke="hsl(228.5, 77.2%, 51.5%)" stroke-width="1.5"></path><path d="M1251.58 261.57L1284.88 77.47" stroke="hsl(228.5, 77.2%, 51.5%)" stroke-width="1.5"></path><path d="M1304.66 349.46L1304.66 349.46" stroke="hsl(228.5, 77.2%, 51.5%)" stroke-width="1.5"></path><path d="M1409.78 86.82L1409.78 86.82" stroke="hsl(228.5, 77.2%, 51.5%)" stroke-width="1.5"></path><path d="M1409.78 86.82L1393.11 239.25" stroke="hsl(228.5, 77.2%, 51.5%)" stroke-width="1.5"></path><path d="M1393.11 239.25L1393.11 239.25" stroke="hsl(228.5, 77.2%, 51.5%)" stroke-width="1.5"></path><path d="M1460.1 556.65L1460.1 556.65" stroke="hsl(228.5, 77.2%, 51.5%)" stroke-width="1.5"></path><path d="M1460.1 556.65L1562.34 544.5" stroke="hsl(228.5, 77.2%, 51.5%)" stroke-width="1.5"></path><path d="M1460.1 556.65L1411.89 676.03" stroke="hsl(228.5, 77.2%, 51.5%)" stroke-width="1.5"></path><path d="M1411.89 676.03L1411.89 676.03" stroke="hsl(228.5, 77.2%, 51.5%)" stroke-width="1.5"></path><path d="M1539.9 -97.69L1539.9 -97.69" stroke="hsl(228.5, 77.2%, 51.5%)" stroke-width="1.5"></path><path d="M1539.9 -97.69L1409.78 86.82" stroke="hsl(228.5, 77.2%, 51.5%)" stroke-width="1.5"></path><path d="M1539.9 -97.69L1311.92 -104.5" stroke="hsl(228.5, 77.2%, 51.5%)" stroke-width="1.5"></path><path d="M1539.9 -97.69L1284.88 77.47" stroke="hsl(228.5, 77.2%, 51.5%)" stroke-width="1.5"></path><path d="M1539.9 -97.69L1541.66 235.03" stroke="hsl(228.5, 77.2%, 51.5%)" stroke-width="1.5"></path><path d="M1541.66 235.03L1541.66 235.03" stroke="hsl(228.5, 77.2%, 51.5%)" stroke-width="1.5"></path><path d="M1541.66 235.03L1393.11 239.25" stroke="hsl(228.5, 77.2%, 51.5%)" stroke-width="1.5"></path><path d="M1541.66 235.03L1567.72 403.74" stroke="hsl(228.5, 77.2%, 51.5%)" stroke-width="1.5"></path><path d="M1567.72 403.74L1567.72 403.74" stroke="hsl(228.5, 77.2%, 51.5%)" stroke-width="1.5"></path><path d="M1567.72 403.74L1562.34 544.5" stroke="hsl(228.5, 77.2%, 51.5%)" stroke-width="1.5"></path><path d="M1562.34 544.5L1562.34 544.5" stroke="hsl(228.5, 77.2%, 51.5%)" stroke-width="1.5"></path><circle r="25" cx="240.12" cy="511.41" fill="url(#SvgjsRadialGradient1019)"></circle><circle r="25" cx="339.64" cy="675.79" fill="url(#SvgjsRadialGradient1019)"></circle><circle r="25" cx="851.87" cy="653.49" fill="url(#SvgjsRadialGradient1019)"></circle><circle r="25" cx="1292.98" cy="544.45" fill="url(#SvgjsRadialGradient1019)"></circle><circle r="25" cx="1396.39" cy="-68.08" fill="url(#SvgjsRadialGradient1019)"></circle><circle r="25" cx="1408.61" cy="363.22" fill="url(#SvgjsRadialGradient1019)"></circle><circle r="25" cx="1564.15" cy="71.34" fill="url(#SvgjsRadialGradient1019)"></circle><circle r="25" cx="1559.65" cy="711.1" fill="url(#SvgjsRadialGradient1019)"></circle><circle r="5" cx="-106.45" cy="543.01" fill="#8b9ad9"></circle><circle r="5" cx="-37.82" cy="641.38" fill="#8b9ad9"></circle><circle r="5" cx="109.33" cy="504.24" fill="#8b9ad9"></circle><circle r="5" cx="82.95" cy="639.51" fill="#8b9ad9"></circle><circle r="5" cx="382.9" cy="530.45" fill="#8b9ad9"></circle><circle r="5" cx="500.32" cy="548.24" fill="#8b9ad9"></circle><circle r="5" cx="681.8" cy="393.73" fill="#8b9ad9"></circle><circle r="5" cx="711.12" cy="539.77" fill="#8b9ad9"></circle><circle r="5" cx="649.08" cy="645.47" fill="#8b9ad9"></circle><circle r="5" cx="815.41" cy="374.09" fill="#8b9ad9"></circle><circle r="5" cx="847.02" cy="536.15" fill="#8b9ad9"></circle><circle r="5" cx="1008.73" cy="257.15" fill="#8b9ad9"></circle><circle r="5" cx="1009.8" cy="368.36" fill="#8b9ad9"></circle><circle r="5" cx="996.71" cy="505.12" fill="#8b9ad9"></circle><circle r="5" cx="937.53" cy="701" fill="#8b9ad9"></circle><circle r="5" cx="1134.71" cy="207.14" fill="#8b9ad9"></circle><circle r="5" cx="1134.27" cy="367.54" fill="#8b9ad9"></circle><circle r="5" cx="1128.81" cy="503.69" fill="#8b9ad9"></circle><circle r="5" cx="1137.74" cy="641.48" fill="#8b9ad9"></circle><circle r="5" cx="1311.92" cy="-104.5" fill="#8b9ad9"></circle><circle r="5" cx="1284.88" cy="77.47" fill="#8b9ad9"></circle><circle r="5" cx="1251.58" cy="261.57" fill="#8b9ad9"></circle><circle r="5" cx="1304.66" cy="349.46" fill="#8b9ad9"></circle><circle r="5" cx="1409.78" cy="86.82" fill="#8b9ad9"></circle><circle r="5" cx="1393.11" cy="239.25" fill="#8b9ad9"></circle><circle r="5" cx="1460.1" cy="556.65" fill="#8b9ad9"></circle><circle r="5" cx="1411.89" cy="676.03" fill="#8b9ad9"></circle><circle r="5" cx="1539.9" cy="-97.69" fill="#8b9ad9"></circle><circle r="5" cx="1541.66" cy="235.03" fill="#8b9ad9"></circle><circle r="5" cx="1567.72" cy="403.74" fill="#8b9ad9"></circle><circle r="5" cx="1562.34" cy="544.5" fill="#8b9ad9"></circle></g><defs><mask id="SvgjsMask1018"><rect width="1440" height="560" fill="#ffffff"></rect></mask><radialGradient id="SvgjsRadialGradient1019"><stop stop-color="#ffffff" offset="0.1"></stop><stop stop-color="#1735b3" offset="0.2"></stop><stop stop-color="rgba(23, 53, 179, 0)" offset="1"></stop></radialGradient></defs></svg>